<svg width="148" height="105" viewBox="0 0 148 105" fill="none" xmlns="http://www.w3.org/2000/svg">
<g clip-path="url(#clip0_23820_140743)">
<path d="M11.3851 2.78955H135.439V97.6317H11.3851V2.78955Z" stroke="black" stroke-width="6"/>
<path d="M25.2085 34.636C22.8672 34.636 20.754 34.1711 18.869 33.2413C16.9838 32.3115 15.3571 31.0562 13.9889 29.4755C12.6206 27.8638 11.5564 26.0661 10.7963 24.0825C10.0666 22.0679 9.70169 20.0068 9.70169 17.8992C9.70169 15.6986 10.097 13.6065 10.8875 11.6229C11.678 9.60823 12.7726 7.8261 14.1713 6.27639C15.5699 4.69569 17.2118 3.45592 19.097 2.55709C21.0125 1.62727 23.08 1.16235 25.2997 1.16235C27.6105 1.16235 29.7085 1.64277 31.5936 2.60358C33.5092 3.5644 35.1358 4.85065 36.4737 6.46235C37.8419 8.07405 38.8909 9.87174 39.6206 11.8553C40.3808 13.8389 40.7609 15.8691 40.7609 17.9457C40.7609 20.1463 40.3655 22.2538 39.575 24.2685C38.8148 26.2521 37.7355 28.0343 36.3369 29.615C34.9382 31.1647 33.2811 32.3889 31.3656 33.2878C29.4804 34.1867 27.4281 34.636 25.2085 34.636V34.636ZM14.9011 17.8992C14.9011 19.4489 15.1442 20.9521 15.6308 22.4088C16.1172 23.8656 16.8014 25.1674 17.6831 26.3141C18.5953 27.4299 19.6899 28.3132 20.9669 28.9641C22.244 29.615 23.673 29.9404 25.2541 29.9404C26.896 29.9404 28.3554 29.5995 29.6325 28.9176C30.9095 28.2358 31.9736 27.3214 32.825 26.1746C33.7067 24.9968 34.3757 23.6951 34.8318 22.2694C35.2879 20.8126 35.5159 19.356 35.5159 17.8992C35.5159 16.3495 35.2726 14.8617 34.7862 13.436C34.3301 11.9793 33.646 10.6931 32.7338 9.57727C31.8217 8.43048 30.7271 7.53165 29.45 6.88077C28.2034 6.2299 26.8048 5.90446 25.2541 5.90446C23.6122 5.90446 22.1527 6.2454 20.8757 6.92727C19.5987 7.60913 18.5192 8.52347 17.6375 9.67025C16.7558 10.817 16.0716 12.1033 15.5852 13.529C15.1291 14.9547 14.9011 16.4115 14.9011 17.8992V17.8992ZM87.2333 1.39481V34.4036H82.0796V19.8518H65.7519V34.4036H60.6438V1.39481H65.7519V15.2027H82.0796V1.39481H87.2333V1.39481ZM122.587 34.636C120.246 34.636 118.133 34.1711 116.247 33.2413C114.363 32.3115 112.735 31.0562 111.367 29.4755C109.999 27.8638 108.935 26.0661 108.175 24.0825C107.445 22.0679 107.08 20.0068 107.08 17.8992C107.08 15.6986 107.476 13.6065 108.266 11.6229C109.057 9.60823 110.151 7.8261 111.55 6.27639C112.949 4.69569 114.591 3.45592 116.475 2.55709C118.391 1.62727 120.459 1.16235 122.678 1.16235C124.989 1.16235 127.087 1.64277 128.972 2.60358C130.887 3.5644 132.515 4.85065 133.852 6.46235C135.22 8.07405 136.269 9.87174 136.999 11.8553C137.76 13.8389 138.139 15.8691 138.139 17.9457C138.139 20.1463 137.744 22.2538 136.953 24.2685C136.194 26.2521 135.114 28.0343 133.715 29.615C132.317 31.1647 130.659 32.3889 128.744 33.2878C126.859 34.1867 124.807 34.636 122.587 34.636V34.636ZM112.279 17.8992C112.279 19.4489 112.523 20.9521 113.009 22.4088C113.496 23.8656 114.18 25.1674 115.061 26.3141C115.974 27.4299 117.068 28.3132 118.345 28.9641C119.622 29.615 121.052 29.9404 122.632 29.9404C124.274 29.9404 125.734 29.5995 127.011 28.9176C128.288 28.2358 129.352 27.3214 130.203 26.1746C131.085 24.9968 131.754 23.6951 132.21 22.2694C132.666 20.8126 132.894 19.356 132.894 17.8992C132.894 16.3495 132.652 14.8617 132.165 13.436C131.708 11.9793 131.024 10.6931 130.112 9.57727C129.2 8.43048 128.105 7.53165 126.828 6.88077C125.582 6.2299 124.183 5.90446 122.632 5.90446C120.991 5.90446 119.531 6.2454 118.254 6.92727C116.977 7.60913 115.898 8.52347 115.016 9.67025C114.135 10.817 113.451 12.1033 112.964 13.529C112.507 14.9547 112.279 16.4115 112.279 17.8992V17.8992ZM35.7535 38.5413H24.99V66.9474H19.8363V38.5413H9.02722V33.9387H35.7535V38.5413ZM67.324 62.3448V66.9474H45.1129V33.9387H66.9135V38.5413H50.221V47.9325H64.6787V52.2562H50.221V62.3448H67.324V62.3448ZM77.656 66.9474V33.9387H100.415V38.4948H82.7641V47.7466H92.2506C95.8385 47.7466 98.5295 48.6144 100.324 50.3501C102.117 52.0547 103.015 54.3174 103.015 57.1378C103.015 59.0284 102.619 60.7176 101.829 62.2053C101.068 63.6621 99.9132 64.8244 98.3625 65.6922C96.8419 66.529 94.9111 66.9474 92.5698 66.9474H77.656V66.9474ZM82.7641 62.3913H91.8857C93.2844 62.3913 94.4094 62.1279 95.2607 61.6009C96.1425 61.074 96.7662 60.4077 97.1311 59.6018C97.5261 58.765 97.724 57.8972 97.724 56.9983C97.724 56.0995 97.5562 55.2626 97.2223 54.4878C96.8876 53.713 96.2791 53.0931 95.3975 52.6281C94.5462 52.1323 93.3452 51.8843 91.7945 51.8843H82.7641V62.3913ZM135.036 62.3448V66.9474H112.825V33.9387H134.626V38.5413H117.933V47.9325H132.391V52.2562H117.933V62.3448H135.036V62.3448ZM35.6399 66.4825V99.4913H30.4862V84.9395H14.1585V99.4913H9.05038V66.4825H14.1585V80.2904H30.4862V66.4825H35.6399V66.4825ZM53.2065 66.4825H58.0409L70.6288 99.4913H65.247L61.8264 90.5185H49.3298L45.9548 99.4913H40.5274L53.2065 66.4825V66.4825ZM60.823 86.6597L55.6237 72.2009L50.242 86.6597H60.823ZM70.4375 105.814V94.8887H71.9882C72.8395 94.8887 73.5692 94.5474 74.1774 93.8659C74.8159 93.1843 75.3479 92.0992 75.7736 90.6115C76.2297 89.1238 76.5794 87.1711 76.8226 84.7536C77.0963 82.3051 77.2939 79.3141 77.4155 75.7808L77.6436 66.4825H98.4866V94.8887H102.591V105.814H98.0761V99.4913H74.9527V105.814H70.4375V105.814ZM78.4645 94.8887H93.3328V71.0852H82.3868L82.25 76.4781C82.1588 80.0424 81.9764 83.0644 81.7027 85.5439C81.4291 87.9924 81.0337 89.9761 80.5169 91.4948C80 93.0132 79.3159 94.1448 78.4645 94.8887V94.8887ZM122.406 99.7238C120.065 99.7238 117.952 99.2588 116.067 98.329C114.181 97.3992 112.555 96.1439 111.187 94.5632C109.818 92.9516 108.754 91.1538 107.994 89.1702C107.264 87.1556 106.899 85.0945 106.899 82.9869C106.899 80.7863 107.294 78.6942 108.085 76.7106C108.876 74.6959 109.971 72.9138 111.369 71.3641C112.767 69.7834 114.409 68.5437 116.295 67.6448C118.21 66.715 120.278 66.2501 122.497 66.2501C124.808 66.2501 126.906 66.7305 128.791 67.6913C130.707 68.6521 132.333 69.9384 133.671 71.5501C135.04 73.1617 136.089 74.9595 136.818 76.9431C137.578 78.9266 137.959 80.9568 137.959 83.0334C137.959 85.234 137.564 87.3416 136.773 89.3562C136.013 91.3398 134.933 93.122 133.535 94.7027C132.136 96.2527 130.479 97.4764 128.563 98.3755C126.678 99.2747 124.626 99.7238 122.406 99.7238V99.7238ZM112.099 82.9869C112.099 84.5367 112.342 86.0398 112.829 87.4966C113.315 88.9533 113.999 90.2551 114.881 91.4018C115.793 92.5176 116.888 93.4009 118.165 94.0518C119.442 94.7027 120.871 95.0281 122.452 95.0281C124.094 95.0281 125.553 94.6869 126.83 94.0053C128.107 93.3238 129.172 92.4091 130.023 91.2624C130.905 90.0845 131.573 88.7828 132.03 87.3571C132.486 85.9003 132.714 84.4437 132.714 82.9869C132.714 81.4372 132.47 79.9495 131.984 78.5238C131.528 77.067 130.844 75.7808 129.932 74.665C129.019 73.5182 127.925 72.6194 126.648 71.9685C125.401 71.3176 124.002 70.9922 122.452 70.9922C120.81 70.9922 119.35 71.3331 118.073 72.015C116.796 72.6968 115.717 73.6112 114.835 74.758C113.953 75.9047 113.269 77.191 112.783 78.6167C112.327 80.0424 112.099 81.4992 112.099 82.9869V82.9869Z" fill="black"/>
</g>
<defs>
<clipPath id="clip0_23820_140743">
<rect width="148" height="105" fill="white"/>
</clipPath>
</defs>
</svg>
