<svg width="142" height="113" viewBox="0 0 142 113" fill="none" xmlns="http://www.w3.org/2000/svg">
<path d="M17.7395 36C15.1728 36 12.8561 35.5 10.7895 34.5C8.72276 33.5 6.93946 32.15 5.43942 30.45C3.93942 28.7167 2.77275 26.7833 1.93942 24.65C1.13942 22.4833 0.73942 20.2667 0.73942 18C0.73942 15.6333 1.17275 13.3833 2.03942 11.25C2.90608 9.0833 4.10608 7.16667 5.63946 5.5C7.17276 3.8 8.97276 2.46667 11.0395 1.5C13.1395 0.5 15.4061 0 17.8395 0C20.3728 0 22.6728 0.51667 24.7395 1.55C26.8395 2.58333 28.6228 3.96666 30.0895 5.7C31.5895 7.43333 32.7395 9.3667 33.5395 11.5C34.3728 13.6333 34.7895 15.8167 34.7895 18.05C34.7895 20.4167 34.3561 22.6833 33.4895 24.85C32.6561 26.9833 31.4728 28.9 29.9395 30.6C28.4061 32.2667 26.5895 33.5833 24.4895 34.55C22.4228 35.5167 20.1728 36 17.7395 36V36ZM6.43946 18C6.43946 19.6667 6.70606 21.2833 7.23946 22.85C7.77276 24.4167 8.52276 25.8167 9.48946 27.05C10.4895 28.25 11.6895 29.2 13.0895 29.9C14.4895 30.6 16.0561 30.95 17.7895 30.95C19.5895 30.95 21.1895 30.5833 22.5895 29.85C23.9895 29.1167 25.1561 28.1333 26.0895 26.9C27.0561 25.6333 27.7895 24.2333 28.2895 22.7C28.7895 21.1333 29.0395 19.5667 29.0395 18C29.0395 16.3333 28.7728 14.7333 28.2395 13.2C27.7395 11.6333 26.9895 10.25 25.9895 9.05C24.9895 7.81666 23.7895 6.85 22.3895 6.15C21.0228 5.45 19.4895 5.1 17.7895 5.1C15.9895 5.1 14.3895 5.46667 12.9895 6.2C11.5895 6.93333 10.4061 7.91667 9.43946 9.15C8.47276 10.3833 7.72276 11.7667 7.18946 13.3C6.68946 14.8333 6.43946 16.4 6.43946 18V18ZM85.7371 0.25V35.75H80.0871V20.1H62.1871V35.75H56.5871V0.25H62.1871V15.1H80.0871V0.25H85.7371V0.25ZM124.495 36C121.929 36 119.612 35.5 117.545 34.5C115.479 33.5 113.695 32.15 112.195 30.45C110.695 28.7167 109.529 26.7833 108.695 24.65C107.895 22.4833 107.495 20.2667 107.495 18C107.495 15.6333 107.929 13.3833 108.795 11.25C109.662 9.0833 110.862 7.16667 112.395 5.5C113.929 3.8 115.729 2.46667 117.795 1.5C119.895 0.5 122.162 0 124.595 0C127.129 0 129.429 0.51667 131.495 1.55C133.595 2.58333 135.379 3.96666 136.845 5.7C138.345 7.43333 139.495 9.3667 140.295 11.5C141.129 13.6333 141.545 15.8167 141.545 18.05C141.545 20.4167 141.112 22.6833 140.245 24.85C139.412 26.9833 138.229 28.9 136.695 30.6C135.162 32.2667 133.345 33.5833 131.245 34.55C129.179 35.5167 126.929 36 124.495 36V36ZM113.195 18C113.195 19.6667 113.462 21.2833 113.995 22.85C114.529 24.4167 115.279 25.8167 116.245 27.05C117.245 28.25 118.445 29.2 119.845 29.9C121.245 30.6 122.812 30.95 124.545 30.95C126.345 30.95 127.945 30.5833 129.345 29.85C130.745 29.1167 131.912 28.1333 132.845 26.9C133.812 25.6333 134.545 24.2333 135.045 22.7C135.545 21.1333 135.795 19.5667 135.795 18C135.795 16.3333 135.529 14.7333 134.995 13.2C134.495 11.6333 133.745 10.25 132.745 9.05C131.745 7.81666 130.545 6.85 129.145 6.15C127.779 5.45 126.245 5.1 124.545 5.1C122.745 5.1 121.145 5.46667 119.745 6.2C118.345 6.93333 117.162 7.91667 116.195 9.15C115.229 10.3833 114.479 11.7667 113.945 13.3C113.445 14.8333 113.195 16.4 113.195 18V18ZM29.3 40.2H17.5V70.75H11.85V40.2H0V35.25H29.3V40.2ZM63.9106 65.8V70.75H39.5606V35.25H63.4606V40.2H45.1606V50.3H61.0106V54.95H45.1606V65.8H63.9106V65.8ZM75.2375 70.75V35.25H100.188V40.15H80.8375V50.1H91.2375C95.1709 50.1 98.121 51.0333 100.088 52.9C102.054 54.7333 103.038 57.1667 103.038 60.2C103.038 62.2333 102.604 64.05 101.738 65.65C100.904 67.2167 99.638 68.4667 97.938 69.4C96.271 70.3 94.1542 70.75 91.5875 70.75H75.2375V70.75ZM80.8375 65.85H90.8375C92.3709 65.85 93.6042 65.5667 94.5375 65C95.5042 64.4333 96.188 63.7167 96.588 62.85C97.021 61.95 97.238 61.0167 97.238 60.05C97.238 59.0833 97.054 58.1833 96.688 57.35C96.321 56.5167 95.654 55.85 94.6875 55.35C93.7542 54.8167 92.4375 54.55 90.7375 54.55H80.8375V65.85ZM138.143 65.8V70.75H113.793V35.25H137.693V40.2H119.393V50.3H135.243V54.95H119.393V65.8H138.143V65.8ZM29.1754 70.25V105.75H23.5254V90.1H5.62536V105.75H0.0253901V70.25H5.62536V85.1H23.5254V70.25H29.1754V70.25ZM48.4336 70.25H53.7336L67.5336 105.75H61.6336L57.8836 96.1H44.1836L40.4836 105.75H34.5336L48.4336 70.25V70.25ZM56.7836 91.95L51.0836 76.4L45.1836 91.95H56.7836ZM67.3239 112.55V100.8H69.0239C69.9572 100.8 70.7572 100.433 71.4239 99.7C72.1239 98.967 72.7072 97.8 73.1739 96.2C73.6739 94.6 74.0572 92.5 74.3239 89.9C74.6239 87.2667 74.8405 84.05 74.9739 80.25L75.2239 70.25H98.074V100.8H102.574V112.55H97.624V105.75H72.2739V112.55H67.3239V112.55ZM76.1239 100.8H92.4239V75.2H80.4239L80.2739 81C80.1739 84.8333 79.9739 88.0833 79.6739 90.75C79.3739 93.3833 78.9405 95.5167 78.3739 97.15C77.8072 98.783 77.0572 100 76.1239 100.8V100.8ZM124.297 106C121.73 106 119.414 105.5 117.347 104.5C115.28 103.5 113.497 102.15 111.997 100.45C110.497 98.7167 109.33 96.7833 108.497 94.65C107.697 92.4833 107.297 90.2667 107.297 88C107.297 85.6333 107.73 83.3833 108.597 81.25C109.464 79.0833 110.664 77.1667 112.197 75.5C113.73 73.8 115.53 72.4667 117.597 71.5C119.697 70.5 121.964 70 124.397 70C126.93 70 129.23 70.5167 131.297 71.55C133.397 72.5833 135.18 73.9667 136.647 75.7C138.147 77.4333 139.297 79.3667 140.097 81.5C140.93 83.6333 141.347 85.8167 141.347 88.05C141.347 90.4167 140.914 92.6833 140.047 94.85C139.214 96.9833 138.03 98.9 136.497 100.6C134.964 102.267 133.147 103.583 131.047 104.55C128.98 105.517 126.73 106 124.297 106V106ZM112.997 88C112.997 89.6667 113.264 91.2833 113.797 92.85C114.33 94.4167 115.08 95.8167 116.047 97.05C117.047 98.25 118.247 99.2 119.647 99.9C121.047 100.6 122.614 100.95 124.347 100.95C126.147 100.95 127.747 100.583 129.147 99.85C130.547 99.117 131.714 98.1333 132.647 96.9C133.614 95.6333 134.347 94.2333 134.847 92.7C135.347 91.1333 135.597 89.5667 135.597 88C135.597 86.3333 135.33 84.7333 134.797 83.2C134.297 81.6333 133.547 80.25 132.547 79.05C131.547 77.8167 130.347 76.85 128.947 76.15C127.58 75.45 126.047 75.1 124.347 75.1C122.547 75.1 120.947 75.4667 119.547 76.2C118.147 76.9333 116.964 77.9167 115.997 79.15C115.03 80.3833 114.28 81.7667 113.747 83.3C113.247 84.8333 112.997 86.4 112.997 88V88Z" fill="white"/>
</svg>
